<?xml version="1.0" encoding="UTF-8"?>
<svg xmlns="http://www.w3.org/2000/svg" width="405.64mm" height="305.64mm" viewBox="0 0 1149.86 866.39">
  <defs>
    <style>
      .cls-1 {
        stroke-width: 0px;
      }
    </style>
  </defs>
  <g id="Ebene_10" data-name="Ebene 10">
    <path class="cls-1" d="m518.24,430.36c0-13.65,19.3-25.04,45-27.74,2.69-8.41,4.22-17.91,4.22-27.97-26.57-12.13-29.95-13.06-29.95-13.06,0,0,9.83-7.47,24.15-19.41-6.97-17.93-19.54-29.89-33.89-29.89-21.92,0-39.69,27.92-39.69,62.36,0,29.81,13.32,54.73,31.11,60.89-.62-1.68-.96-3.41-.96-5.18Z"/>
    <g>
      <path class="cls-1" d="m770.05,426.13c.57-1.32.72-2.61.46-3.81-.26-1.21-.88-2.26-1.84-3.16-.96-.89-2.22-1.57-3.75-2.08-.62-.2-1.32-.35-2.09-.44-.42-.05-.83-.07-1.24-.07-.35,0-.7.02-1.04.05-.75.07-1.41.26-1.98.54-.57.29-.96.72-1.19,1.32-.19.51-.17,1.04.06,1.61.23.57.66,1.02,1.31,1.32.41.19.9.32,1.46.38.56.06,1.15.11,1.75.17.6.05,1.18.18,1.72.39.64.24,1.08.51,1.31.81.23.3.28.6.16.89-.18.4-.51.6-.98.61,0,0,0,0,0,0-.48,0-1.2-.24-2.18-.72-.48-.24-1-.48-1.54-.74-.54-.26-1.08-.45-1.6-.58-.25-.06-.49-.09-.72-.09-.26,0-.5.04-.74.11-.45.14-.81.49-1.11,1.04-.3.55-.38,1.04-.24,1.49.14.45.42.86.83,1.23s.88.72,1.41,1.03c.53.31,1.02.61,1.49.89.88.53,1.43.96,1.65,1.29.22.33.22.67,0,1.01-.15.23-.4.37-.76.4-.03,0-.07,0-.1,0-.34,0-.77-.17-1.29-.52-.49-.32-.93-.73-1.34-1.23-.41-.5-.79-.98-1.15-1.43-.36-.45-.69-.77-.98-.95-.48-.3-.97-.45-1.48-.45-.1,0-.21,0-.31.02-.61.07-1.09.35-1.45.85-.35.47-.48,1.01-.4,1.63.08.62.29,1.28.63,1.96.34.68.76,1.34,1.25,1.95.49.61.99,1.13,1.5,1.54,1.26,1.01,2.51,1.7,3.78,2.02.54.13,1.07.2,1.59.2.71,0,1.41-.13,2.08-.38,1.16-.44,2.17-1.27,2.95-2.45.41-.62.69-1.33.82-2.12.13-.79.09-1.61-.13-2.46.83-.27,1.54-.68,2.12-1.21.58-.53,1.02-1.16,1.32-1.86Z"/>
      <path class="cls-1" d="m774.04,409.28c.09-1.61-.11-3.07-.57-4.33-.46-1.25-1.1-2.3-1.91-3.13-.8-.83-1.71-1.43-2.69-1.81-.95-.37-1.93-.54-2.93-.54-.03,0-.06,0-.09,0-.58,0-1.19.04-1.82.09-.64.05-1.25.15-1.84.29-.59.14-1.12.34-1.59.6-.47.25-.83.58-1.1.97-.26.39-.38.89-.35,1.48.03.75.2,1.35.52,1.81.32.46.72.8,1.2,1.04.48.23.97.38,1.49.45.5.06.93.09,1.29.09.06,0,.12,0,.18,0,.4-.01.79-.03,1.17-.05.08,0,.17,0,.26,0,.33,0,.71.02,1.14.08.37.04.75.14,1.15.28.4.15.72.37.98.67.25.3.37.72.34,1.24-.03.5-.19.87-.48,1.09-.28.22-.63.35-1.04.38-.13.01-.26.02-.38.02-.27,0-.53-.02-.78-.07-.55-.1-1.01-.22-1.38-.35-.37-.13-.75-.26-1.14-.39-.39-.13-.88-.25-1.46-.35-.26-.05-.52-.07-.78-.07-.24,0-.49.02-.73.06-.5.08-.93.3-1.29.64-.37.34-.6.88-.72,1.6-.09.57-.04,1.07.18,1.53.22.46.54.88.97,1.26.43.38.93.73,1.49,1.04.57.31,1.16.59,1.78.83.62.24,1.21.45,1.78.63.84.26,1.67.4,2.5.4.18,0,.35,0,.53-.02,1.01-.07,1.96-.38,2.84-.93.88-.55,1.63-1.37,2.22-2.45.59-1.08.96-2.44,1.05-4.05Z"/>
      <path class="cls-1" d="m742.3,436.71s-.06,0-.09,0c-.53,0-1.09.19-1.72.55-.51.3-.87.66-1.05,1.1-.19.44-.26.92-.22,1.45.04.53.16,1.08.36,1.65.2.57.45,1.14.75,1.7.3.56.61,1.09.92,1.58.55.87,1.24,1.62,2.1,2.24.86.62,1.85,1.05,2.99,1.27.49.1,1.01.15,1.54.15.68,0,1.4-.08,2.13-.25,1.3-.3,2.64-.92,3.94-1.88,1.3-.96,2.24-2.01,2.83-3.09.58-1.08.86-2.16.85-3.2-.01-1.04-.28-2.01-.77-2.89-.49-.88-1.15-1.66-1.97-2.33-.46-.38-.96-.76-1.5-1.15-.54-.39-1.09-.73-1.66-1.04-.57-.31-1.13-.53-1.69-.69-.39-.11-.76-.16-1.12-.16-.16,0-.31.01-.46.03-.5.07-.96.29-1.38.68-.54.49-.85.97-.95,1.47-.09.5-.04.98.16,1.44.2.46.48.88.83,1.26.4.43.76.78,1.09,1.03.32.26.64.5.95.74.31.24.66.56,1.05.97.26.27.49.58.69.94.2.36.29.71.26,1.07-.03.36-.25.7-.67,1.01-.35.26-.7.38-1.04.38-.06,0-.11,0-.17-.01-.39-.05-.76-.2-1.11-.45-.35-.25-.64-.52-.87-.8-.36-.43-.63-.81-.82-1.14-.19-.33-.39-.66-.6-1-.21-.34-.5-.74-.88-1.19-.33-.4-.73-.73-1.18-1-.46-.28-.96-.42-1.51-.45Z"/>
    </g>
    <path class="cls-1" d="m634.21,361.58s7.02-6.11,21.72-19.52c-6.98-17.86-19.53-29.77-33.84-29.77-21.92,0-39.68,27.92-39.68,62.36,0,10.06,1.53,19.56,4.22,27.97,25.7,2.69,45,14.09,45,27.74,0,1.77-.34,3.5-.96,5.18,17.8-6.16,31.11-31.07,31.11-60.89-22.05-10.05-27.57-13.07-27.57-13.07Z"/>
    <path class="cls-1" d="m574.93,404.52c-29.38,0-54.19,11.84-54.19,25.85s24.82,25.85,54.19,25.85,54.19-11.84,54.19-25.85-24.82-25.85-54.19-25.85Z"/>
  </g>
  <g id="Ebene_11" data-name="Ebene 11">
    <path class="cls-1" d="m1149.15.71v864.98H.71V.71h1148.44M1149.86,0H0v866.39h1149.86V0h0Z"/>
  </g>
  <g id="Ebene_12" data-name="Ebene 12">
    <g>
      <path class="cls-1" d="m756.27,423.67c-.3.55-.38,1.04-.24,1.49.14.45.42.86.83,1.23s.88.72,1.41,1.03c.53.31,1.02.61,1.49.89.44.26.79.5,1.07.72.35-1.73,1.21-3.31,2.47-4.54-.37-.12-.8-.3-1.31-.55-.48-.24-1-.48-1.54-.74-.54-.26-1.08-.45-1.6-.58-.25-.06-.49-.09-.72-.09-.26,0-.5.04-.74.11-.45.14-.81.49-1.11,1.04Z"/>
      <path class="cls-1" d="m757.38,418.48c-.19.51-.17,1.04.06,1.61.23.57.66,1.02,1.31,1.32.41.19.9.32,1.46.38.56.06,1.15.11,1.75.17.48.04.93.14,1.38.28-.06-.12-.13-.24-.19-.36-.74-1.72-.89-3.54-.55-5.25-.34-.03-.68-.06-1.01-.06s-.7.02-1.04.05c-.75.07-1.41.26-1.98.54-.57.29-.96.72-1.19,1.32Z"/>
      <path class="cls-1" d="m759.16,402.9c.03.75.2,1.35.52,1.81.32.46.72.8,1.2,1.04.48.23.97.38,1.49.45.5.06.93.09,1.29.09.06,0,.12,0,.18,0,.4-.01.79-.03,1.17-.05.08,0,.17,0,.26,0,.33,0,.71.02,1.14.08.34.04.7.13,1.06.25-.05-.07-.1-.13-.13-.17,0,0,0,0,0,0h0c-.08-.08-.15-.14-.22-.19-.05-.04-.09-.05-.13-.07-.06-.02-.12-.04-.2-.06l-6.26-1.39s-.02,0-.03-.01c-.02,0-.05-.02-.07-.03-.02-.01-.04-.02-.05-.03-.02-.02-.03-.03-.05-.05-.01-.02-.03-.03-.04-.05-.01-.02-.02-.04-.03-.06,0-.02-.01-.04-.01-.07,0,0,0-.02,0-.03-.03-1.17-.08-2.35-.16-3.53-.22.18-.42.38-.57.61-.26.39-.38.89-.35,1.48Z"/>
      <path class="cls-1" d="m758.87,412.57c.22.46.54.88.97,1.26.43.38.93.73,1.49,1.04.49.27,1.01.5,1.54.72.75-2.28,2.42-4.26,4.77-5.32.02-.02.03-.04.05-.08,0,0,0,0,0,0,.01-.02.06-.13.12-.33-.15.05-.3.08-.46.1-.13.01-.26.02-.38.02-.27,0-.53-.02-.78-.07-.55-.1-1.01-.22-1.38-.35-.37-.13-.75-.26-1.14-.39-.39-.13-.88-.25-1.46-.35-.26-.05-.52-.07-.78-.07-.24,0-.49.02-.73.06-.5.08-.93.3-1.29.64-.37.34-.6.88-.72,1.6-.09.57-.04,1.07.18,1.53Z"/>
      <path class="cls-1" d="m720.76,429.42s0,0,0,0c.06-.07.15-.12.24-.12.07,0,.12.03.17.06.03.01.06,0,.09.03,0,0,0,0,0,0,0,0,.01,0,.02.01.92.79,1.83,1.53,2.7,2.19,4.45,3.36,9.13,5.57,13.35,6.35.05-.14.09-.28.15-.42.37-.86,1.02-1.56,1.94-2.1.97-.57,1.89-.85,2.79-.85.06,0,.12,0,.18,0,.55.02,1.08.13,1.58.3-.05-.45-.03-.91.05-1.38.18-.95.72-1.84,1.61-2.65.75-.68,1.6-1.09,2.54-1.22.24-.03.5-.05.75-.05.39,0,.79.04,1.19.12-.03-.17-.06-.34-.08-.51-.15-1.16.13-2.25.8-3.16.71-.97,1.72-1.56,2.92-1.7.04,0,.08,0,.11-.01.05-.5.21-1.06.55-1.67.33-.61.73-1.09,1.2-1.45-.05-.1-.09-.2-.14-.3-.43-1.07-.46-2.16-.08-3.17.41-1.09,1.18-1.95,2.22-2.47.14-.07.28-.14.43-.2-.46-.48-.83-1-1.1-1.57-.4-.85-.52-1.79-.36-2.79.2-1.22.65-2.14,1.37-2.81.34-.32.71-.57,1.11-.77-.42-.33-.8-.72-1.12-1.18-.56-.79-.85-1.75-.91-2.93-.05-1.06.19-1.99.71-2.77.46-.68,1.08-1.24,1.85-1.66.09-.05.19-.08.29-.13-.27-2.88-.68-5.78-1.24-8.65-2.33-11.77-7.15-23.62-13.57-33.37-5.3-8.05-11.74-14.67-18.14-18.66-4.77-2.97-9.52-4.55-13.7-4.47-3.79.04-6.89,1.24-9.77,3.78-1.44,1.27-2.78,2.88-3.97,4.8,0,0-.01.01-.02.02-.01.02-.03.04-.05.05-.02.02-.04.03-.06.04,0,0-.01.01-.02.02-.01,0-.02,0-.03,0-.03.01-.06.02-.09.02-.01,0-.02,0-.03,0,0,0-.01,0-.02,0-.05,0-.11-.02-.16-.04,0,0,0,0,0,0,0,0,0,0,0,0-.05-.03-.09-.08-.12-.13,0,0,0,0-.01-.01-5.67-11.5-12.14-21.49-19.24-29.69-10.18-11.76-21.79-19.93-33.58-23.62-3.64-1.14-7.35-1.87-11.02-2.18-3.15-.27-6.14-.4-8.86-.37-8.42.07-13.94,1.45-19.78,3.12l-.75.21c-4.06,1.16-8.25,2.36-12.58,3.11-5.2.9-10.78,1.31-18.09,1.32h0s-.01,0-.02,0h-.02c-7.31-.01-12.89-.42-18.09-1.32-4.33-.75-8.52-1.95-12.58-3.11l-.76-.22c-5.84-1.67-11.36-3.05-19.78-3.12-2.73-.03-5.71.1-8.86.37-11.79,1-23.26,6.15-34.09,15.33-11.23,9.51-21.52,23.4-29.75,40.16,0,0,0,0-.01.01-.03.05-.06.1-.12.13,0,0,0,0,0,0,0,0,0,0,0,0-.05.03-.11.04-.16.05,0,0-.01,0-.02,0-.01,0-.02,0-.03,0-.03,0-.06-.01-.09-.02-.01,0-.02,0-.03,0,0,0-.01-.01-.02-.02-.02-.01-.04-.03-.06-.04-.02-.02-.04-.03-.05-.05,0,0-.01-.01-.02-.02l-.26-.42c-2.37-3.67-5.15-6.06-8.51-7.28-3.27-1.2-6.84-1.2-10.89,0-5.51,1.62-11.56,5.58-17.02,11.14-7.24,7.36-13.82,18-18.06,29.19-4.14,10.91-6.27,22.63-6,33,.21,8.04,1.91,15.42,4.78,20.75,2.15,4,4.86,6.85,8.06,8.47,3.16,1.6,6.65,1.96,10.67,1.12,4.87-1.03,10.36-4.03,15.46-8.45,0,0,0,0,0,0,.07-.06.16-.09.25-.09,0,0,0,0,0,0,0,0,0,0,0,0,.09,0,.18.05.24.12,0,0,0,0,0,0,0,0,0,0,0,0,.06.07.09.16.09.25h0c-.35,5.52-.53,11.1-.55,16.59,0,0,0,0,0,0s0,0,0,0c0,1.17-.09,2.41-.22,3.68,9.91-11.83,22.48-22.28,37.39-31.09-1.49-3.29-2.81-6.75-3.93-10.3-12.88-40.97,2.04-88.85,33.26-106.74,13.3-7.62,28.17-8.87,41.88-3.5,17.11,6.69,30.88,22.85,37.93,44.41,1.08-3.29,2.32-6.5,3.72-9.56,8.92-19.5,23.83-32.96,40.91-36.92,14.89-3.45,30.25.52,43.27,11.18,28.89,23.66,38.38,73.59,21.23,111.44,14.91,8.81,27.48,19.27,37.39,31.1-.13-1.27-.22-2.51-.22-3.68,0,0,0,0,0,0s0,0,0,0c-.02-5.51-.21-11.09-.55-16.59,0-.1.03-.19.09-.25,0,0,0,0,0,0Z"/>
      <path class="cls-1" d="m744.99,438.16c-.33-.4-.73-.73-1.18-1-.46-.28-.96-.42-1.51-.45-.03,0-.06,0-.09,0-.53,0-1.09.19-1.72.55-.45.27-.77.58-.97.95,1.6.11,3.07.03,4.44-.29.04,0,.08,0,.12,0,0,0,.01,0,.02,0,.09.01.17.06.22.13,0,0,0,0,0,0h0s0,0,0,0l2.8,3.73c.04.06.08.1.12.15.07.07.15.14.2.17.07.05.16.1.39.14,0,0,0,0,0,0,0,0,.03,0,.03,0,.07.01.14.03.29.02,0,0,0,0,0,0-.35-.25-.64-.52-.87-.8-.36-.43-.63-.81-.82-1.14-.19-.33-.39-.66-.6-1-.21-.34-.5-.74-.88-1.19Z"/>
      <path class="cls-1" d="m750.03,431.88c-.39-.11-.76-.16-1.12-.16-.16,0-.31.01-.46.03-.5.07-.96.29-1.38.68-.54.49-.85.97-.95,1.47-.09.5-.04.98.16,1.44.2.46.48.88.83,1.26.4.43.76.78,1.09,1.03.32.26.64.5.95.74.31.24.66.56,1.05.97.26.27.49.58.69.94.08.15.14.3.18.45.16-.18.18-.21.2-.27v-.03c-.11-.78-.13-1.57-.04-2.35.19-1.72.87-3.31,1.95-4.62-.47-.33-.95-.63-1.45-.9-.57-.31-1.13-.53-1.69-.69Z"/>
      <path class="cls-1" d="m754.3,426.43c-.1,0-.21,0-.31.02-.61.07-1.09.35-1.45.85-.35.47-.48,1.01-.4,1.63.08.62.29,1.28.63,1.96.31.62.69,1.22,1.13,1.78.19-.18.39-.36.59-.52,1.31-1.05,2.86-1.68,4.48-1.87-.38-.29-.74-.62-1.06-1.02-.41-.5-.79-.98-1.15-1.43-.36-.45-.69-.77-.98-.95-.48-.3-.97-.45-1.48-.45Z"/>
    </g>
  </g>
</svg>