0
SECTION
2
HEADER
9
$INSUNITS
70
4
9
$ACADVER
1
AC1014
9
$HANDSEED
5
FFFF
0
ENDSEC
0
SECTION
2
TABLES
0
TABLE
2
VPORT
5
8
100
AcDbSymbolTable
0
ENDTAB
0
TABLE
2
LTYPE
5
5
100
AcDbSymbolTable
0
LTYPE
5
14
100
AcDbSymbolTableRecord
100
AcDbLinetypeTableRecord
2
BYBLOCK
70
0
0
LTYPE
5
15
100
AcDbSymbolTableRecord
100
AcDbLinetypeTableRecord
2
BYLAYER
70
0
0
ENDTAB
0
TABLE
2
LAYER
5
2
100
AcDbSymbolTable
70
2
0
LAYER
5
50
100
AcDbSymbolTableRecord
100
AcDbLayerTableRecord
2
0
70
0
6
CONTINUOUS
0
ENDTAB
0
TABLE
2
STYLE
5
3
100
AcDbSymbolTable
70
1
0
STYLE
5
11
100
AcDbSymbolTableRecord
100
AcDbTextStyleTableRecord
2
STANDARD
70
0
0
ENDTAB
0
TABLE
2
VIEW
5
6
100
AcDbSymbolTable
70
0
0
ENDTAB
0
TABLE
2
UCS
5
7
100
AcDbSymbolTable
70
0
0
ENDTAB
0
TABLE
2
APPID
5
9
100
AcDbSymbolTable
70
2
0
APPID
5
12
100
AcDbSymbolTableRecord
100
AcDbRegAppTableRecord
2
ACAD
70
0
0
ENDTAB
0
TABLE
2
DIMSTYLE
5
A
100
AcDbSymbolTable
70
1
0
ENDTAB
0
TABLE
2
BLOCK_RECORD
5
1
100
AcDbSymbolTable
70
1
0
BLOCK_RECORD
5
1F
100
AcDbSymbolTableRecord
100
AcDbBlockTableRecord
2
*MODEL_SPACE
0
BLOCK_RECORD
5
1B
100
AcDbSymbolTableRecord
100
AcDbBlockTableRecord
2
*PAPER_SPACE
0
ENDTAB
0
ENDSEC
0
SECTION
2
BLOCKS
0
BLOCK
5
20
100
AcDbEntity
100
AcDbBlockBegin
2
*MODEL_SPACE
0
ENDBLK
5
21
100
AcDbEntity
100
AcDbBlockEnd
0
BLOCK
5
1C
100
AcDbEntity
100
AcDbBlockBegin
2
*PAPER_SPACE
0
ENDBLK
5
1D
100
AcDbEntity
100
AcDbBlockEnd
0
ENDSEC
0
SECTION
2
ENTITIES
0
ELLIPSE
5
100
100
AcDbEntity
8
0
100
AcDbEllipse
10
2.6367796834847468e-15
20
-27.680691639362188
30
0
11
-60
21
3.4553562093922276e-16
31
0.0
40
0.70833333333333337
41
3.3981420525311523
42
6.0266359082382266
0
SPLINE
5
101
100
AcDbEntity
8
0
100
AcDbSpline
70
4
71
5
72
12
73
6
74
0
42
0.000000001
43
0.0000000001
44
0.0000000001
40
0
40
0
40
0
40
0
40
0
40
0
40
0.075211703342150882
40
0.075211703342150882
40
0.075211703342150882
40
0.075211703342150882
40
0.075211703342150882
40
0.075211703342150882
41
1
41
1
41
1
41
1
41
1
41
1
10
-58.036278334313167
20
-16.896554565171964
30
0
10
-58.293452592969942
20
-17.590966236050964
30
0
10
-58.53481088461691
20
-18.285533724550941
30
0
10
-58.760353815337865
20
-18.980257006567737
30
0
10
-58.970228222338378
20
-19.675056697385052
30
0
10
-59.164666636460694
20
-20.369795035195946
30
0
0
SPLINE
5
102
100
AcDbEntity
8
0
100
AcDbSpline
70
4
71
5
72
13
73
7
74
0
42
0.000000001
43
0.0000000001
44
0.0000000001
40
0
40
0
40
0
40
0
40
0
40
0
40
0.010526315789473684
40
0.017749499805533003
40
0.017749499805533003
40
0.017749499805533003
40
0.017749499805533003
40
0.017749499805533003
40
0.017749499805533003
41
1
41
1
41
1
41
1
41
1
41
1
41
1
10
-59.164666636460687
20
-20.369795035195946
30
0
10
-59.307468104444766
20
-20.880031939524002
30
0
10
-59.53580431625663
20
-21.748971608155351
30
0
10
-59.743137262411864
20
-22.632373551420724
30
0
10
-59.929792326062987
20
-23.528933019738897
30
0
10
-60.096501976424705
20
-24.435743700159943
30
0
10
-60.161099402736696
20
-24.806240846549134
30
0
0
SPLINE
5
103
100
AcDbEntity
8
0
100
AcDbSpline
70
4
71
5
72
105
73
99
74
0
42
0.000000001
43
0.0000000001
44
0.0000000001
40
0.01774949980553301
40
0.01774949980553301
40
0.01774949980553301
40
0.01774949980553301
40
0.01774949980553301
40
0.01774949980553301
40
0.021052631578947368
40
0.031578947368421054
40
0.042105263157894736
40
0.052631578947368418
40
0.063157894736842107
40
0.073684210526315796
40
0.084210526315789486
40
0.094736842105263175
40
0.10526315789473686
40
0.11578947368421055
40
0.12631578947368424
40
0.13684210526315793
40
0.14736842105263162
40
0.15789473684210531
40
0.168421052631579
40
0.17894736842105269
40
0.18947368421052638
40
0.20000000000000007
40
0.21052631578947376
40
0.22105263157894744
40
0.23157894736842113
40
0.24210526315789482
40
0.25263157894736848
40
0.26315789473684215
40
0.27368421052631581
40
0.28421052631578947
40
0.29473684210526313
40
0.30526315789473679
40
0.31578947368421045
40
0.32631578947368411
40
0.33684210526315778
40
0.34736842105263144
40
0.3578947368421051
40
0.36842105263157876
40
0.37894736842105242
40
0.38947368421052608
40
0.39999999999999974
40
0.41052631578947341
40
0.42105263157894707
40
0.43157894736842073
40
0.44210526315789439
40
0.45263157894736805
40
0.46315789473684171
40
0.47368421052631537
40
0.48421052631578904
40
0.4947368421052627
40
0.50526315789473641
40
0.51578947368421013
40
0.52631578947368385
40
0.53684210526315757
40
0.54736842105263128
40
0.557894736842105
40
0.56842105263157872
40
0.57894736842105243
40
0.58947368421052615
40
0.59999999999999987
40
0.61052631578947358
40
0.6210526315789473
40
0.63157894736842102
40
0.64210526315789473
40
0.65263157894736845
40
0.66315789473684217
40
0.67368421052631589
40
0.6842105263157896
40
0.69473684210526332
40
0.70526315789473704
40
0.71578947368421075
40
0.72631578947368447
40
0.73684210526315819
40
0.7473684210526319
40
0.75789473684210562
40
0.76842105263157934
40
0.77894736842105305
40
0.78947368421052677
40
0.80000000000000049
40
0.81052631578947421
40
0.82105263157894792
40
0.83157894736842164
40
0.84210526315789536
40
0.85263157894736907
40
0.86315789473684279
40
0.87368421052631651
40
0.88421052631579022
40
0.89473684210526394
40
0.90526315789473766
40
0.91578947368421137
40
0.92631578947368509
40
0.93684210526315881
40
0.94736842105263253
40
0.95789473684210624
40
0.96842105263157996
40
0.97894736842105368
40
0.98947368421052739
40
1
40
1
40
1
40
1
40
1
40
1
41
1
41
1
41
1
41
1
41
1
41
1
41
1
41
1
41
1
41
1
41
1
41
1
41
1
41
1
41
1
41
1
41
1
41
1
41
1
41
1
41
1
41
1
41
1
41
1
41
1
41
1
41
1
41
1
41
1
41
1
41
1
41
1
41
1
41
1
41
1
41
1
41
1
41
1
41
1
41
1
41
1
41
1
41
1
41
1
41
1
41
1
41
1
41
1
41
1
41
1
41
1
41
1
41
1
41
1
41
1
41
1
41
1
41
1
41
1
41
1
41
1
41
1
41
1
41
1
41
1
41
1
41
1
41
1
41
1
41
1
41
1
41
1
41
1
41
1
41
1
41
1
41
1
41
1
41
1
41
1
41
1
41
1
41
1
41
1
41
1
41
1
41
1
41
1
41
1
41
1
41
1
41
1
41
1
41
1
41
1
41
1
41
1
41
1
41
1
10
-60.161099402736689
20
-24.806240846549137
30
0
10
-60.190639535018732
20
-24.975667638594949
30
0
10
-60.311475851864458
20
-25.686304756494426
30
0
10
-60.503506811177203
20
-26.946655777390347
30
0
10
-60.728042034670622
20
-28.766355271770088
30
0
10
-60.933944025178626
20
-31.132198985868772
30
0
10
-61.067619658429741
20
-33.809261309326047
30
0
10
-61.111899985271819
20
-36.363374519086221
30
0
10
-61.080079063192009
20
-38.74814160011357
30
0
10
-60.980789820332348
20
-40.938843363158519
30
0
10
-60.816522962766506
20
-42.938231810252944
30
0
10
-60.580069333523284
20
-44.792711599590234
30
0
10
-60.25579883213743
20
-46.584321162616284
30
0
10
-59.809073746376242
20
-48.482100970380884
30
0
10
-59.218513603628864
20
-50.578387920099885
30
0
10
-58.479919167302242
20
-52.878402703859294
30
0
10
-57.602226817629571
20
-55.328739632015399
30
0
10
-56.607015496544982
20
-57.828559579919812
30
0
10
-55.526427362549839
20
-60.248251937829281
30
0
10
-54.40192752108301
20
-62.444758992543676
30
0
10
-53.282368831711537
20
-64.27854161568294
30
0
10
-52.223155315132963
20
-65.629330871470216
30
0
10
-51.283087674192664
20
-66.413593273109214
30
0
10
-50.526697983194644
20
-66.598486122674188
30
0
10
-50.008905476726767
20
-66.225379271156612
30
0
10
-49.746405820982986
20
-65.428160152194664
30
0
10
-49.679064929275832
20
-64.477497335381514
30
0
10
-49.683453766353828
20
-63.726728650590601
30
0
10
-49.633213227824967
20
-63.478817582144138
30
0
10
-49.455859395878761
20
-63.849515888009293
30
0
10
-49.162137291155517
20
-64.710213974558869
30
0
10
-48.800040733368874
20
-65.831647430905619
30
0
10
-48.424320277268833
20
-66.987347467975809
30
0
10
-48.061013305995033
20
-68.068590206698175
30
0
10
-47.713450719663726
20
-69.049502250275253
30
0
10
-47.36569481139999
20
-69.959795102047195
30
0
10
-46.987127413243982
20
-70.855185180243268
30
0
10
-46.536215239701029
20
-71.787265622925517
30
0
10
-45.965598318152729
20
-72.778271788359319
30
0
10
-45.23386922861485
20
-73.823964111414512
30
0
10
-44.315982055350894
20
-74.893266537914897
30
0
10
-43.215330002452966
20
-75.928321247675967
30
0
10
-41.972548831174102
20
-76.846234947255297
30
0
10
-40.682064290771898
20
-77.535465477096196
30
0
10
-39.482494924362726
20
-77.87113668842639
30
0
10
-38.512876401233562
20
-77.754820488880014
30
0
10
-37.875881589494732
20
-77.150001114486912
30
0
10
-37.601367541889445
20
-76.115564695807905
30
0
10
-37.60138505849897
20
-74.850097554413409
30
0
10
-37.711043783800818
20
-73.633329521521574
30
0
10
-37.747636964491079
20
-72.74513513336413
30
0
10
-37.558268759120487
20
-72.39985637818296
30
0
10
-37.084308793098756
20
-72.656553893039145
30
0
10
-36.375855409168395
20
-73.402414713085278
30
0
10
-35.533333739046938
20
-74.443599677751934
30
0
10
-34.668557992658357
20
-75.56702275888415
30
0
10
-33.853578341867028
20
-76.621037525812184
30
0
10
-33.088030465769975
20
-77.566220091802364
30
0
10
-32.327742121030624
20
-78.426141418768623
30
0
10
-31.50343310821906
20
-79.253673354860894
30
0
10
-30.545344078843208
20
-80.089274177728541
30
0
10
-29.400617079983483
20
-80.927358114589623
30
0
10
-28.063048419906078
20
-81.666343276458932
30
0
10
-26.670184755927959
20
-82.17526111942081
30
0
10
-25.409675591489062
20
-82.328197554033579
30
0
10
-24.463308519283391
20
-82.043527126779338
30
0
10
-23.943375305687645
20
-81.316176727759157
30
0
10
-23.814892203771898
20
-80.265841397840646
30
0
10
-23.885128239565958
20
-79.132712393185273
30
0
10
-23.912084005748994
20
-78.18495993289315
30
0
10
-23.67900867274772
20
-77.651962871588779
30
0
10
-23.095874697914219
20
-77.635649074176399
30
0
10
-22.2475328605444
20
-78.067383620790878
30
0
10
-21.292438158438181
20
-78.793587496381448
30
0
10
-20.394633589443579
20
-79.633541413374431
30
0
10
-19.626711159872997
20
-80.459844309041486
30
0
10
-18.939319685035045
20
-81.229311180063547
30
0
10
-18.230423095993601
20
-81.940368073084841
30
0
10
-17.395360862143473
20
-82.604913215422783
30
0
10
-16.377502193008915
20
-83.218834903599429
30
0
10
-15.235928632007262
20
-83.72228958843553
30
0
10
-14.13993574356917
20
-84.005804844799002
30
0
10
-13.270673834195852
20
-83.97590405150234
30
0
10
-12.753616595775961
20
-83.599576941657688
30
0
10
-12.563802035744359
20
-82.969880951027932
30
0
10
-12.485430161304542
20
-82.326299097958881
30
0
10
-12.255262488159204
20
-81.923726066071382
30
0
10
-11.706622283873058
20
-81.896420865203794
30
0
10
-10.827570136050767
20
-82.209524425199248
30
0
10
-9.6856286145428783
20
-82.743895052187725
30
0
10
-8.3897703932089698
20
-83.343106615446487
30
0
10
-7.0303703736911602
20
-83.884361986496828
30
0
10
-5.6523087733139672
20
-84.309794581965448
30
0
10
-4.2716026305834838
20
-84.60322248789582
30
0
10
-2.8825970949445692
20
-84.778870689041511
30
0
10
-1.7516482489987804
20
-84.848036607842445
30
0
10
-0.88432444684527056
20
-84.872815937545255
30
0
10
-0.29639407526105621
20
-84.879221936271776
30
0
10
2.3532037222450332e-15
20
-84.879896882259203
30
0
0
SPLINE
5
104
100
AcDbEntity
8
0
100
AcDbSpline
70
4
71
5
72
105
73
99
74
0
42
0.000000001
43
0.0000000001
44
0.0000000001
40
0.01774949980553301
40
0.01774949980553301
40
0.01774949980553301
40
0.01774949980553301
40
0.01774949980553301
40
0.01774949980553301
40
0.021052631578947368
40
0.031578947368421054
40
0.042105263157894736
40
0.052631578947368418
40
0.063157894736842107
40
0.073684210526315796
40
0.084210526315789486
40
0.094736842105263175
40
0.10526315789473686
40
0.11578947368421055
40
0.12631578947368424
40
0.13684210526315793
40
0.14736842105263162
40
0.15789473684210531
40
0.168421052631579
40
0.17894736842105269
40
0.18947368421052638
40
0.20000000000000007
40
0.21052631578947376
40
0.22105263157894744
40
0.23157894736842113
40
0.24210526315789482
40
0.25263157894736848
40
0.26315789473684215
40
0.27368421052631581
40
0.28421052631578947
40
0.29473684210526313
40
0.30526315789473679
40
0.31578947368421045
40
0.32631578947368411
40
0.33684210526315778
40
0.34736842105263144
40
0.3578947368421051
40
0.36842105263157876
40
0.37894736842105242
40
0.38947368421052608
40
0.39999999999999974
40
0.41052631578947341
40
0.42105263157894707
40
0.43157894736842073
40
0.44210526315789439
40
0.45263157894736805
40
0.46315789473684171
40
0.47368421052631537
40
0.48421052631578904
40
0.4947368421052627
40
0.50526315789473641
40
0.51578947368421013
40
0.52631578947368385
40
0.53684210526315757
40
0.54736842105263128
40
0.557894736842105
40
0.56842105263157872
40
0.57894736842105243
40
0.58947368421052615
40
0.59999999999999987
40
0.61052631578947358
40
0.6210526315789473
40
0.63157894736842102
40
0.64210526315789473
40
0.65263157894736845
40
0.66315789473684217
40
0.67368421052631589
40
0.6842105263157896
40
0.69473684210526332
40
0.70526315789473704
40
0.71578947368421075
40
0.72631578947368447
40
0.73684210526315819
40
0.7473684210526319
40
0.75789473684210562
40
0.76842105263157934
40
0.77894736842105305
40
0.78947368421052677
40
0.80000000000000049
40
0.81052631578947421
40
0.82105263157894792
40
0.83157894736842164
40
0.84210526315789536
40
0.85263157894736907
40
0.86315789473684279
40
0.87368421052631651
40
0.88421052631579022
40
0.89473684210526394
40
0.90526315789473766
40
0.91578947368421137
40
0.92631578947368509
40
0.93684210526315881
40
0.94736842105263253
40
0.95789473684210624
40
0.96842105263157996
40
0.97894736842105368
40
0.98947368421052739
40
1
40
1
40
1
40
1
40
1
40
1
41
1
41
1
41
1
41
1
41
1
41
1
41
1
41
1
41
1
41
1
41
1
41
1
41
1
41
1
41
1
41
1
41
1
41
1
41
1
41
1
41
1
41
1
41
1
41
1
41
1
41
1
41
1
41
1
41
1
41
1
41
1
41
1
41
1
41
1
41
1
41
1
41
1
41
1
41
1
41
1
41
1
41
1
41
1
41
1
41
1
41
1
41
1
41
1
41
1
41
1
41
1
41
1
41
1
41
1
41
1
41
1
41
1
41
1
41
1
41
1
41
1
41
1
41
1
41
1
41
1
41
1
41
1
41
1
41
1
41
1
41
1
41
1
41
1
41
1
41
1
41
1
41
1
41
1
41
1
41
1
41
1
41
1
41
1
41
1
41
1
41
1
41
1
41
1
41
1
41
1
41
1
41
1
41
1
41
1
41
1
41
1
41
1
41
1
41
1
10
60.161099402736689
20
-24.806240846549137
30
0
10
60.190639535018732
20
-24.975667638594949
30
0
10
60.311475851864458
20
-25.686304756494426
30
0
10
60.503506811177203
20
-26.946655777390347
30
0
10
60.728042034670622
20
-28.766355271770088
30
0
10
60.933944025178626
20
-31.132198985868772
30
0
10
61.067619658429741
20
-33.809261309326047
30
0
10
61.111899985271819
20
-36.363374519086221
30
0
10
61.080079063192009
20
-38.74814160011357
30
0
10
60.980789820332348
20
-40.938843363158519
30
0
10
60.816522962766506
20
-42.938231810252944
30
0
10
60.580069333523284
20
-44.792711599590234
30
0
10
60.25579883213743
20
-46.584321162616284
30
0
10
59.809073746376242
20
-48.482100970380884
30
0
10
59.218513603628864
20
-50.578387920099885
30
0
10
58.479919167302242
20
-52.878402703859294
30
0
10
57.602226817629571
20
-55.328739632015399
30
0
10
56.607015496544982
20
-57.828559579919812
30
0
10
55.526427362549839
20
-60.248251937829281
30
0
10
54.40192752108301
20
-62.444758992543676
30
0
10
53.282368831711537
20
-64.27854161568294
30
0
10
52.223155315132963
20
-65.629330871470216
30
0
10
51.283087674192664
20
-66.413593273109214
30
0
10
50.526697983194644
20
-66.598486122674188
30
0
10
50.008905476726767
20
-66.225379271156612
30
0
10
49.746405820982986
20
-65.428160152194664
30
0
10
49.679064929275832
20
-64.477497335381514
30
0
10
49.683453766353828
20
-63.726728650590601
30
0
10
49.633213227824967
20
-63.478817582144138
30
0
10
49.455859395878761
20
-63.849515888009293
30
0
10
49.162137291155517
20
-64.710213974558869
30
0
10
48.800040733368874
20
-65.831647430905619
30
0
10
48.424320277268833
20
-66.987347467975809
30
0
10
48.061013305995033
20
-68.068590206698175
30
0
10
47.713450719663726
20
-69.049502250275253
30
0
10
47.36569481139999
20
-69.959795102047195
30
0
10
46.987127413243982
20
-70.855185180243268
30
0
10
46.536215239701029
20
-71.787265622925517
30
0
10
45.965598318152729
20
-72.778271788359319
30
0
10
45.23386922861485
20
-73.823964111414512
30
0
10
44.315982055350894
20
-74.893266537914897
30
0
10
43.215330002452966
20
-75.928321247675967
30
0
10
41.972548831174102
20
-76.846234947255297
30
0
10
40.682064290771898
20
-77.535465477096196
30
0
10
39.482494924362726
20
-77.87113668842639
30
0
10
38.512876401233562
20
-77.754820488880014
30
0
10
37.875881589494732
20
-77.150001114486912
30
0
10
37.601367541889445
20
-76.115564695807905
30
0
10
37.60138505849897
20
-74.850097554413409
30
0
10
37.711043783800818
20
-73.633329521521574
30
0
10
37.747636964491079
20
-72.74513513336413
30
0
10
37.558268759120487
20
-72.39985637818296
30
0
10
37.084308793098756
20
-72.656553893039145
30
0
10
36.375855409168395
20
-73.402414713085278
30
0
10
35.533333739046938
20
-74.443599677751934
30
0
10
34.668557992658357
20
-75.56702275888415
30
0
10
33.853578341867028
20
-76.621037525812184
30
0
10
33.088030465769975
20
-77.566220091802364
30
0
10
32.327742121030624
20
-78.426141418768623
30
0
10
31.50343310821906
20
-79.253673354860894
30
0
10
30.545344078843208
20
-80.089274177728541
30
0
10
29.400617079983483
20
-80.927358114589623
30
0
10
28.063048419906078
20
-81.666343276458932
30
0
10
26.670184755927959
20
-82.17526111942081
30
0
10
25.409675591489062
20
-82.328197554033579
30
0
10
24.463308519283391
20
-82.043527126779338
30
0
10
23.943375305687645
20
-81.316176727759157
30
0
10
23.814892203771898
20
-80.265841397840646
30
0
10
23.885128239565958
20
-79.132712393185273
30
0
10
23.912084005748994
20
-78.18495993289315
30
0
10
23.67900867274772
20
-77.651962871588779
30
0
10
23.095874697914219
20
-77.635649074176399
30
0
10
22.2475328605444
20
-78.067383620790878
30
0
10
21.292438158438181
20
-78.793587496381448
30
0
10
20.394633589443579
20
-79.633541413374431
30
0
10
19.626711159872997
20
-80.459844309041486
30
0
10
18.939319685035045
20
-81.229311180063547
30
0
10
18.230423095993601
20
-81.940368073084841
30
0
10
17.395360862143473
20
-82.604913215422783
30
0
10
16.377502193008915
20
-83.218834903599429
30
0
10
15.235928632007262
20
-83.72228958843553
30
0
10
14.13993574356917
20
-84.005804844799002
30
0
10
13.270673834195852
20
-83.97590405150234
30
0
10
12.753616595775961
20
-83.599576941657688
30
0
10
12.563802035744359
20
-82.969880951027932
30
0
10
12.485430161304542
20
-82.326299097958881
30
0
10
12.255262488159204
20
-81.923726066071382
30
0
10
11.706622283873058
20
-81.896420865203794
30
0
10
10.827570136050767
20
-82.209524425199248
30
0
10
9.6856286145428783
20
-82.743895052187725
30
0
10
8.3897703932089698
20
-83.343106615446487
30
0
10
7.0303703736911602
20
-83.884361986496828
30
0
10
5.6523087733139672
20
-84.309794581965448
30
0
10
4.2716026305834838
20
-84.60322248789582
30
0
10
2.8825970949445692
20
-84.778870689041511
30
0
10
1.7516482489987804
20
-84.848036607842445
30
0
10
0.88432444684527056
20
-84.872815937545255
30
0
10
0.29639407526105621
20
-84.879221936271776
30
0
10
-2.3532037222450332e-15
20
-84.879896882259203
30
0
0
SPLINE
5
105
100
AcDbEntity
8
0
100
AcDbSpline
70
4
71
5
72
13
73
7
74
0
42
0.000000001
43
0.0000000001
44
0.0000000001
40
0
40
0
40
0
40
0
40
0
40
0
40
0.010526315789473684
40
0.017749499805533003
40
0.017749499805533003
40
0.017749499805533003
40
0.017749499805533003
40
0.017749499805533003
40
0.017749499805533003
41
1
41
1
41
1
41
1
41
1
41
1
41
1
10
59.164666636460687
20
-20.369795035195946
30
0
10
59.307468104444766
20
-20.880031939524002
30
0
10
59.53580431625663
20
-21.748971608155351
30
0
10
59.743137262411864
20
-22.632373551420724
30
0
10
59.929792326062987
20
-23.528933019738897
30
0
10
60.096501976424705
20
-24.435743700159943
30
0
10
60.161099402736696
20
-24.806240846549134
30
0
0
SPLINE
5
106
100
AcDbEntity
8
0
100
AcDbSpline
70
4
71
5
72
12
73
6
74
0
42
0.000000001
43
0.0000000001
44
0.0000000001
40
0
40
0
40
0
40
0
40
0
40
0
40
0.075211703342150882
40
0.075211703342150882
40
0.075211703342150882
40
0.075211703342150882
40
0.075211703342150882
40
0.075211703342150882
41
1
41
1
41
1
41
1
41
1
41
1
10
58.036278334313167
20
-16.896554565171964
30
0
10
58.293452592969942
20
-17.590966236050964
30
0
10
58.53481088461691
20
-18.285533724550941
30
0
10
58.760353815337865
20
-18.980257006567737
30
0
10
58.970228222338378
20
-19.675056697385052
30
0
10
59.164666636460694
20
-20.369795035195946
30
0
0
LINE
5
107
100
AcDbEntity
8
0
100
AcDbLine
10
-200.00000000000003
20
-150
30
0
11
199.99999999999997
21
-150
31
0
0
LINE
5
108
100
AcDbEntity
8
0
100
AcDbLine
10
199.99999999999997
20
-150
30
0
11
199.99999999999997
21
150
31
0
0
LINE
5
109
100
AcDbEntity
8
0
100
AcDbLine
10
-199.99999999999997
20
150
30
0
11
-200.00000000000003
21
-150
31
0
0
LINE
5
110
100
AcDbEntity
8
0
100
AcDbLine
10
199.99999999999997
20
150
30
0
11
-199.99999999999997
21
150
31
0
0
ENDSEC
0
SECTION
2
OBJECTS
0
DICTIONARY
5
C
100
AcDbDictionary
3
ACAD_GROUP
350
D
3
ACAD_MLINESTYLE
350
17
0
DICTIONARY
5
D
100
AcDbDictionary
0
DICTIONARY
5
1A
330
C
100
AcDbDictionary
0
DICTIONARY
5
17
100
AcDbDictionary
0
ENDSEC
0
EOF
