0
SECTION
2
HEADER
9
$INSUNITS
70
4
9
$ACADVER
1
AC1014
9
$HANDSEED
5
FFFF
0
ENDSEC
0
SECTION
2
TABLES
0
TABLE
2
VPORT
5
8
100
AcDbSymbolTable
0
ENDTAB
0
TABLE
2
LTYPE
5
5
100
AcDbSymbolTable
0
LTYPE
5
14
100
AcDbSymbolTableRecord
100
AcDbLinetypeTableRecord
2
BYBLOCK
70
0
0
LTYPE
5
15
100
AcDbSymbolTableRecord
100
AcDbLinetypeTableRecord
2
BYLAYER
70
0
0
ENDTAB
0
TABLE
2
LAYER
5
2
100
AcDbSymbolTable
70
2
0
LAYER
5
50
100
AcDbSymbolTableRecord
100
AcDbLayerTableRecord
2
0
70
0
6
CONTINUOUS
0
ENDTAB
0
TABLE
2
STYLE
5
3
100
AcDbSymbolTable
70
1
0
STYLE
5
11
100
AcDbSymbolTableRecord
100
AcDbTextStyleTableRecord
2
STANDARD
70
0
0
ENDTAB
0
TABLE
2
VIEW
5
6
100
AcDbSymbolTable
70
0
0
ENDTAB
0
TABLE
2
UCS
5
7
100
AcDbSymbolTable
70
0
0
ENDTAB
0
TABLE
2
APPID
5
9
100
AcDbSymbolTable
70
2
0
APPID
5
12
100
AcDbSymbolTableRecord
100
AcDbRegAppTableRecord
2
ACAD
70
0
0
ENDTAB
0
TABLE
2
DIMSTYLE
5
A
100
AcDbSymbolTable
70
1
0
ENDTAB
0
TABLE
2
BLOCK_RECORD
5
1
100
AcDbSymbolTable
70
1
0
BLOCK_RECORD
5
1F
100
AcDbSymbolTableRecord
100
AcDbBlockTableRecord
2
*MODEL_SPACE
0
BLOCK_RECORD
5
1B
100
AcDbSymbolTableRecord
100
AcDbBlockTableRecord
2
*PAPER_SPACE
0
ENDTAB
0
ENDSEC
0
SECTION
2
BLOCKS
0
BLOCK
5
20
100
AcDbEntity
100
AcDbBlockBegin
2
*MODEL_SPACE
0
ENDBLK
5
21
100
AcDbEntity
100
AcDbBlockEnd
0
BLOCK
5
1C
100
AcDbEntity
100
AcDbBlockBegin
2
*PAPER_SPACE
0
ENDBLK
5
1D
100
AcDbEntity
100
AcDbBlockEnd
0
ENDSEC
0
SECTION
2
ENTITIES
0
LWPOLYLINE
5
100
100
AcDbEntity
8
0
100
AcDbPolyline
90
4
70
1
43
0.0
10
199.99999999999997
20
-150
10
199.99999999999997
20
150
10
-199.99999999999997
20
150
10
-200.00000000000003
20
-150
0
ELLIPSE
5
101
100
AcDbEntity
8
0
100
AcDbEllipse
10
-19.882519690460228
20
20.126077213949163
30
0
11
0.99463565602127535
21
28.48263857004423
31
0.0
40
0.75438596491228094
41
5.1501344868635508
42
8.4395126423609685
0
ELLIPSE
5
102
100
AcDbEntity
8
0
100
AcDbEllipse
10
19.882519690460228
20
20.126077213949163
30
0
11
-0.99463565602127535
21
28.48263857004423
31
0.0
40
0.75438596491228094
41
4.1268579719982039
42
7.4162361274956217
0
ELLIPSE
5
103
100
AcDbEntity
8
0
100
AcDbEllipse
10
2.6367796834847468e-15
20
-27.680691639362188
30
0
11
-60
21
3.4553562093922276e-16
31
0.0
40
0.70833333333333337
41
3.6688293182344847
42
4.0191961232830158
0
SPLINE
5
104
100
AcDbEntity
8
0
100
AcDbSpline
70
0
71
3
72
8
73
4
74
0
42
0.000000001
43
0.0000000001
44
0.0000000001
40
-0.10324104593550294
40
-0.10324104593550294
40
-0.10324104593550294
40
-0.10324104593550294
40
0
40
0
40
0
40
0
10
51.852043961221185
20
-6.2969361142693669
30
0
10
51.780456940512025
20
-5.7365656488406414
30
0
10
51.737679715287335
20
-5.1716253249372564
30
0
10
51.73542880299393
20
-4.6098843094633795
30
0
0
SPLINE
5
105
100
AcDbEntity
8
0
100
AcDbSpline
70
0
71
3
72
8
73
4
74
0
42
0.000000001
43
0.0000000001
44
0.0000000001
40
-1.5639272430141591
40
-1.5639272430141591
40
-1.5639272430141591
40
-1.5639272430141591
40
-1.4630742154849026
40
-1.4630742154849026
40
-1.4630742154849026
40
-1.4630742154849026
10
51.73542880299393
20
-4.6098843094634647
30
0
10
51.727582317111008
20
-2.6517036372610594
30
0
10
51.661604385682445
20
-0.69434223950280205
30
0
10
51.539307072828564
20
1.2519578408985299
30
0
0
SPLINE
5
106
100
AcDbEntity
8
0
100
AcDbSpline
70
0
71
3
72
14
73
10
74
0
42
0.000000001
43
0.0000000001
44
0.0000000001
40
-0.8248030779306762
40
-0.8248030779306762
40
-0.8248030779306762
40
-0.8248030779306762
40
-0.74658604243321491
40
-0.74658604243321491
40
-0.74658604243321491
40
-0.28870562569586955
40
-0.28870562569586955
40
-0.28870562569586955
40
-0.082755861158109206
40
-0.082755861158109206
40
-0.082755861158109206
40
-0.082755861158109206
10
51.539307069204277
20
1.2519578440704233
30
0
10
51.861271701970352
20
0.97312479229576043
30
0
10
52.183458623861725
20
0.71096517931337155
30
0
10
52.505316615138014
20
0.46809843464160006
30
0
10
54.389464617405572
20
-0.95363693994393395
30
0
10
56.233866351499145
20
-1.7029485996715286
30
0
10
57.761398691383718
20
-1.8725530005942947
30
0
10
58.448466568111677
20
-1.9488392647754695
30
0
10
59.072439052478472
20
-1.9239325915108147
30
0
10
59.655320843409989
20
-1.790966769190661
30
0
0
SPLINE
5
107
100
AcDbEntity
8
0
100
AcDbSpline
70
0
71
3
72
17
73
13
74
0
42
0.000000001
43
0.0000000001
44
0.0000000001
40
-0.42307436040484014
40
-0.42307436040484014
40
-0.42307436040484014
40
-0.42307436040484014
40
-0.26003290120518563
40
-0.26003290120518563
40
-0.26003290120518563
40
-0.21455927904402974
40
-0.21455927904402974
40
-0.21455927904402974
40
-0.13961327282740299
40
-0.13961327282740299
40
-0.13961327282740299
40
0
40
0
40
0
40
0
10
59.655320843409996
20
-1.7909667691906572
30
0
10
59.985042947074618
20
-2.2309950420325642
30
0
10
60.314765050739226
20
-2.6710233148744731
30
0
10
60.644487154403848
20
-3.1110515877163825
30
0
10
60.662416849095173
20
-3.1349795334013146
30
0
10
60.680239807683208
20
-3.1557594021627047
30
0
10
60.698526714875157
20
-3.1746683779917539
30
0
10
60.728648845417872
20
-3.2058151778509809
30
0
10
60.764456069324702
20
-3.2349072637863618
30
0
10
60.789164283624416
20
-3.2514362721142733
30
0
10
60.828665578742161
20
-3.2778613803007426
30
0
10
60.872724962344044
20
-3.3006623025310926
30
0
10
60.972776424274755
20
-3.3203370985129688
30
0
0
SPLINE
5
108
100
AcDbEntity
8
0
100
AcDbSpline
70
0
71
3
72
20
73
16
74
0
42
0.000000001
43
0.0000000001
44
0.0000000001
40
-0.42056471253172534
40
-0.42056471253172534
40
-0.42056471253172534
40
-0.42056471253172534
40
-0.36307303267216923
40
-0.36307303267216923
40
-0.36307303267216923
40
-0.30088116715815211
40
-0.30088116715815211
40
-0.30088116715815211
40
-0.2087083760116642
40
-0.2087083760116642
40
-0.2087083760116642
40
-0.1122911804480749
40
-0.1122911804480749
40
-0.1122911804480749
40
-0.10715995318604021
40
-0.10715995318604021
40
-0.10715995318604021
40
-0.10715995318604021
10
60.972776433960178
20
-3.3203370491456181
30
0
10
61.022611111819472
20
-3.3301480851003196
30
0
10
61.067218540908108
20
-3.3438756871607147
30
0
10
61.235905198572937
20
-3.3194114059540643
30
0
10
61.414670145260708
20
-3.2934854910879863
30
0
10
61.537458501377522
20
-3.241992221695575
30
0
10
61.658899890198043
20
-3.1782937164310088
30
0
10
61.834659106100844
20
-3.0861043940902944
30
0
10
62.094116645454761
20
-2.8897342796933683
30
0
10
62.206690641616767
20
-2.7671710113249528
30
0
10
62.327688192000679
20
-2.6354367232547133
30
0
10
62.308253383675556
20
-2.644734942182458
30
0
10
62.335788255883784
20
-2.5720890951452411
30
0
10
62.336358703149756
20
-2.570584071823816
30
0
10
62.336881651944225
20
-2.569169005366676
30
0
10
62.33735682605375
20
-2.5678538337474399
30
0
0
ARC
5
109
100
AcDbEntity
8
0
100
AcDbCircle
10
65.295964333841226
20
-2.0712235740334157
30
0
40
3
210
0
220
-0
230
1
100
AcDbArc
50
83.603377664363848
51
189.52880428174598
0
ARC
5
110
100
AcDbEntity
8
0
100
AcDbCircle
10
68.62960467985657
20
0.85056973435046612
30
0
40
2.9999999999999734
210
0
220
0
230
1
100
AcDbArc
50
124.09471033220024
51
178.86298311060474
0
ARC
5
111
100
AcDbEntity
8
0
100
AcDbCircle
10
69.267925648568095
20
5.2368944637203185
30
0
40
3.0000000000000036
210
0
220
0
230
1
100
AcDbArc
50
113.42852457518519
51
219.34557068786512
0
SPLINE
5
112
100
AcDbEntity
8
0
100
AcDbSpline
70
0
71
3
72
11
73
7
74
0
42
0.000000001
43
0.0000000001
44
0.0000000001
40
-0.052412986601514951
40
-0.052412986601514951
40
-0.052412986601514951
40
-0.052412986601514951
40
0
40
0
40
0
40
1.2612253934573327e-05
40
1.2612253934573327e-05
40
1.2612253934573327e-05
40
1.2612253934573327e-05
10
68.075111418132124
20
7.9895648420383338
30
0
10
68.083727500564095
20
8.0009280508304368
30
0
10
68.097845088596841
20
8.0214690778216795
30
0
10
68.115346729447452
20
8.0534820309164381
30
0
10
68.115366896336894
20
8.0535189189826024
30
0
10
68.115387063226308
20
8.0535558070487205
30
0
10
68.115407230104893
20
8.0535926950950181
30
0
0
SPLINE
5
113
100
AcDbEntity
8
0
100
AcDbSpline
70
0
71
3
72
23
73
19
74
0
42
0.000000001
43
0.0000000001
44
0.0000000001
40
-0.36589697043483249
40
-0.36589697043483249
40
-0.36589697043483249
40
-0.36589697043483249
40
-0.36589234343655924
40
-0.36589234343655924
40
-0.36589234343655924
40
-0.32746960943847869
40
-0.32746960943847869
40
-0.32746960943847869
40
-0.27669184855417522
40
-0.27669184855417522
40
-0.27669184855417522
40
-0.1404494507589345
40
-0.1404494507589345
40
-0.1404494507589345
40
0
40
0
40
0
40
1.0384977420595308e-05
40
1.0384977420595308e-05
40
1.0384977420595308e-05
40
1.0384977420595308e-05
10
68.115407230117583
20
8.0535926951182155
30
0
10
68.115427400112793
20
8.0536295814963204
30
0
10
68.115447570109893
20
8.0536664678778731
30
0
10
68.115467740106965
20
8.0537033542594259
30
0
10
68.129152358456906
20
8.0787294388676258
30
0
10
68.156989251490941
20
8.1407517243919347
30
0
10
68.180981015667413
20
8.2478411275573009
30
0
10
68.212828030810073
20
8.38999315185775
30
0
10
68.227292353730988
20
8.5957824631779971
30
0
10
68.226511283083681
20
8.7199099684638295
30
0
10
68.22450212903496
20
9.0392041074297449
30
0
10
68.1758329398792
20
9.1620894419800596
30
0
10
68.120567326450185
20
9.2916060013228936
30
0
10
68.063675931071145
20
9.4249326275652638
30
0
10
68.009842679088393
20
9.4969094461992203
30
0
10
67.964327141616337
20
9.5439108811351652
30
0
10
67.964303060225689
20
9.5439357486854242
30
0
10
67.964278978835054
20
9.5439606162356725
30
0
10
67.964254897452221
20
9.5439854837778668
30
0
0
SPLINE
5
114
100
AcDbEntity
8
0
100
AcDbSpline
70
0
71
3
72
20
73
16
74
0
42
0.000000001
43
0.0000000001
44
0.0000000001
40
-0.44259140308486355
40
-0.44259140308486355
40
-0.44259140308486355
40
-0.44259140308486355
40
-0.44257280762834716
40
-0.44257280762834716
40
-0.44257280762834716
40
-0.30644114360978048
40
-0.30644114360978048
40
-0.30644114360978048
40
-0.17337869003353579
40
-0.17337869003353579
40
-0.17337869003353579
40
-0.091120532057123199
40
-0.091120532057123199
40
-0.091120532057123199
40
0.20152772369664085
40
0.20152772369664085
40
0.20152772369664085
40
0.20152772369664085
10
67.964254897469061
20
9.5439854837604603
30
0
10
67.96423081776922
20
9.5440103530098224
30
0
10
67.964206738094077
20
9.5440352222336706
30
0
10
67.964182658418963
20
9.5440600914574887
30
0
10
67.925610972574674
20
9.5838965046887719
30
0
10
67.893651778488817
20
9.6093907087573456
30
0
10
67.866734639746952
20
9.6274720196691188
30
0
10
67.840470807333389
20
9.6451144787788543
30
0
10
67.819403482588356
20
9.6557873984623335
30
0
10
67.795718197095894
20
9.6650120074316899
30
0
10
67.770112373268191
20
9.6749846004250912
30
0
10
67.743640938933197
20
9.6837711865379248
30
0
10
67.707892687586508
20
9.691719183595783
30
0
10
66.971355374829017
20
9.8554753443665355
30
0
10
66.234818062071511
20
10.019231505137288
30
0
10
65.49828074931402
20
10.182987665908039
30
0
0
SPLINE
5
115
100
AcDbEntity
8
0
100
AcDbSpline
70
0
71
3
72
23
73
19
74
0
42
0.000000001
43
0.0000000001
44
0.0000000001
40
1.0512116443565973
40
1.0512116443565973
40
1.0512116443565973
40
1.0512116443565973
40
1.318450037816385
40
1.318450037816385
40
1.318450037816385
40
1.9476606590314103
40
1.9476606590314103
40
1.9476606590314103
40
2.4878897570768048
40
2.4878897570768048
40
2.4878897570768048
40
2.9339033561342864
40
2.9339033561342864
40
2.9339033561342864
40
3.3723542483877624
40
3.3723542483877624
40
3.3723542483877624
40
3.5840156701374539
40
3.5840156701374539
40
3.5840156701374539
40
3.5840156701374539
10
65.498280749314063
20
10.182987665908037
30
0
10
65.460193990400285
20
11.833814594283465
30
0
10
65.27702755335774
20
13.574871922107691
30
0
10
64.927832673285977
20
15.337508282112818
30
0
10
64.105656171734296
20
19.48762123817615
30
0
10
62.375677635188815
20
23.731161589628577
30
0
10
60.123065654063112
20
27.152813673455793
30
0
10
58.189012893701459
20
30.090583565994571
30
0
10
55.87935371014418
20
32.40640095617988
30
0
10
53.684196834899545
20
33.774418348195908
30
0
10
51.871873466969134
20
34.903854661037805
30
0
10
50.175182037888518
20
35.385116037880401
30
0
10
48.784852677796842
20
35.369389921058847
30
0
10
47.41809805473919
20
35.353930459807749
30
0
10
46.301569199545149
20
34.925783786889959
30
0
10
45.255539669202179
20
34.00409650541831
30
0
10
44.750570694349335
20
33.559153539508877
30
0
10
44.266712195664311
20
32.981212736300016
30
0
10
43.831733807190439
20
32.282272457977413
30
0
0
SPLINE
5
116
100
AcDbEntity
8
0
100
AcDbSpline
70
0
71
3
72
14
73
10
74
0
42
0.000000001
43
0.0000000001
44
0.0000000001
40
-0.87166134981810817
40
-0.87166134981810817
40
-0.87166134981810817
40
-0.87166134981810817
40
-0.59298535727540991
40
-0.59298535727540991
40
-0.59298535727540991
40
-0.18046787994748809
40
-0.18046787994748809
40
-0.18046787994748809
40
-0.049281335297292533
40
-0.049281335297292533
40
-0.049281335297292533
40
-0.049281335297292533
10
43.831733807191604
20
32.28227245797931
30
0
10
41.832181117466789
20
36.33941174303655
30
0
10
39.528774848759028
20
39.893396395702084
30
0
10
37.027364385514396
20
42.783117352511447
30
0
10
33.324585668753421
20
47.060702904133677
30
0
10
29.222123769278959
20
49.870206989375944
30
0
10
25.122829922860213
20
51.152369663708718
30
0
10
23.819194986709388
20
51.560116002154061
30
0
10
22.513237914292755
20
51.817425989643951
30
0
10
21.207628667633657
20
51.927816228337846
30
0
0
SPLINE
5
117
100
AcDbEntity
8
0
100
AcDbSpline
70
0
71
3
72
20
73
16
74
0
42
0.000000001
43
0.0000000001
44
0.0000000001
40
-1
40
-1
40
-1
40
-1
40
-0.89917610209527266
40
-0.89917610209527266
40
-0.89917610209527266
40
-0.57128814457333654
40
-0.57128814457333654
40
-0.57128814457333654
40
-0.32123155992644287
40
-0.32123155992644287
40
-0.32123155992644287
40
0
40
0
40
0
40
0.00028333375546388533
40
0.00028333375546388533
40
0.00028333375546388533
40
0.00028333375546388533
10
21.207628667633649
20
51.927816228337875
30
0
10
20.051905361263618
20
52.025533498632001
30
0
10
19.010713188949449
20
52.065912166718292
30
0
10
18.071050870007237
20
52.05828554217053
30
0
10
15.015188471100306
20
52.033483105469315
30
0
10
13.048245537033488
20
51.520855373553033
30
0
10
11.05869805608574
20
50.953332178512632
30
0
10
9.5414131523077756
20
50.520523017321651
30
0
10
7.9839829511244726
20
50.064541578213344
30
0
10
6.3673391754258564
20
49.784335234590969
30
0
10
4.2905412272879531
20
49.42437222465783
30
0
10
2.2029576525136858
20
49.323374712562895
30
0
10
0.0055445486884448444
20
49.319313484312211
30
0
10
0.0036963408457898203
20
49.319310068480256
30
0
10
0.0018481330031347959
20
49.319306652648301
30
0
10
-7.484000829542474e-08
20
49.319303236816339
30
0
0
SPLINE
5
118
100
AcDbEntity
8
0
100
AcDbSpline
70
0
71
3
72
20
73
16
74
0
42
0.000000001
43
0.0000000001
44
0.0000000001
40
-0.00028332610674448378
40
-0.00028332610674448378
40
-0.00028332610674448378
40
-0.00028332610674448378
40
0
40
0
40
0
40
0.32123155992644287
40
0.32123155992644287
40
0.32123155992644287
40
0.57128814457333654
40
0.57128814457333654
40
0.57128814457333654
40
0.89917610209527266
40
0.89917610209527266
40
0.89917610209527266
40
1
40
1
40
1
40
1
10
-7.4837142088803738e-08
20
49.31930323709296
30
0
10
-0.0018482327895027214
20
49.319306652832722
30
0
10
-0.0036963907389737831
20
49.31931006857247
30
0
10
-0.0055445486884448444
20
49.319313484312211
30
0
10
-2.2029576525136858
20
49.323374712562895
30
0
10
-4.2905412272879531
20
49.42437222465783
30
0
10
-6.3673391754258564
20
49.784335234590969
30
0
10
-7.9839829511244726
20
50.064541578213344
30
0
10
-9.5414131523077756
20
50.520523017321651
30
0
10
-11.05869805608574
20
50.953332178512632
30
0
10
-13.048245537033488
20
51.520855373553033
30
0
10
-15.015188471100306
20
52.033483105469315
30
0
10
-18.071050870007237
20
52.05828554217053
30
0
10
-19.010713188949449
20
52.065912166718292
30
0
10
-20.051905361263618
20
52.025533498632001
30
0
10
-21.207628667633649
20
51.927816228337875
30
0
0
SPLINE
5
119
100
AcDbEntity
8
0
100
AcDbSpline
70
0
71
3
72
11
73
7
74
0
42
0.000000001
43
0.0000000001
44
0.0000000001
40
0.049281335297292596
40
0.049281335297292596
40
0.049281335297292596
40
0.049281335297292596
40
0.45899332191996939
40
0.45899332191996939
40
0.45899332191996939
40
0.871661349889154
40
0.871661349889154
40
0.871661349889154
40
0.871661349889154
10
-21.207628667633621
20
51.927816228337846
30
0
10
-25.285209639279707
20
51.583053706239056
30
0
10
-29.406557673795191
20
49.792510719939671
30
0
10
-33.303623226543664
20
46.490946132613416
30
0
10
-37.2288058158449
20
43.165561003670234
30
0
10
-40.876531116207374
20
38.296487003351302
30
0
10
-43.831733808716507
20
32.282272454870203
30
0
0
SPLINE
5
120
100
AcDbEntity
8
0
100
AcDbSpline
70
0
71
3
72
35
73
31
74
0
42
0.000000001
43
0.0000000001
44
0.0000000001
40
2.6991696370150748
40
2.6991696370150748
40
2.6991696370150748
40
2.6991696370150748
40
2.7142643630553054
40
2.7142643630553054
40
2.7142643630553054
40
3.1409801542015559
40
3.1409801542015559
40
3.1409801542015559
40
3.5580029132417419
40
3.5580029132417419
40
3.5580029132417419
40
4.062600641921887
40
4.062600641921887
40
4.062600641921887
40
4.6900055075033302
40
4.6900055075033302
40
4.6900055075033302
40
5.2932139743964726
40
5.2932139743964726
40
5.2932139743964726
40
5.7916913026888777
40
5.7916913026888777
40
5.7916913026888777
40
6.2115042862462175
40
6.2115042862462175
40
6.2115042862462175
40
6.6409696138347929
40
6.6409696138347929
40
6.6409696138347929
40
7.107988385402261
40
7.107988385402261
40
7.107988385402261
40
7.107988385402261
10
-43.831733807022971
20
32.282272457706398
30
0
10
-43.862885991949632
20
32.332633811770961
30
0
10
-43.894241452444007
20
32.382386558586887
30
0
10
-43.925843361366134
20
32.431419310703163
30
0
10
-44.819203965029757
20
33.817535862643766
30
0
10
-45.855207434557919
20
34.63595143164752
30
0
10
-46.990900523758995
20
35.050623336161195
30
0
10
-48.100795857628135
20
35.455875790616233
30
0
10
-49.382862997491664
20
35.504138613737325
30
0
10
-50.911744089366309
20
35.054315777065284
30
0
10
-52.761690907994556
20
34.510029939487545
30
0
10
-54.926138163017043
20
33.173291271384443
30
0
10
-56.970512476864926
20
31.093596150244693
30
0
10
-59.512439082307374
20
28.507752489509215
30
0
10
-61.835746890269554
20
24.800846090812179
30
0
10
-63.370578235438266
20
20.753900570589945
30
0
10
-64.846217513117054
20
16.863028923314776
30
0
10
-65.588661090646937
20
12.680584169628855
30
0
10
-65.494308335083929
20
9.0652517037220974
30
0
10
-65.416337431007719
20
6.0776257544775172
30
0
10
-64.767433793748438
20
3.4978009042317497
30
0
10
-63.794329884137468
20
1.6876194987192326
30
0
10
-62.974790794958565
20
0.16310150462813144
30
0
10
-61.970450836487501
20
-0.80903081636221941
30
0
10
-60.895662901446777
20
-1.3525181462786589
30
0
10
-59.796163432184962
20
-1.9085013419506525
30
0
10
-58.562669659497359
20
-2.0769192876585709
30
0
10
-57.050794262595375
20
-1.7575429829902511
30
0
10
-55.406716975637629
20
-1.4102396737535039
30
0
10
-53.458641056941957
20
-0.41146299615725829
30
0
10
-51.539307065602458
20
1.251957847200561
30
0
0
SPLINE
5
121
100
AcDbEntity
8
0
100
AcDbSpline
70
0
71
3
72
8
73
4
74
0
42
0.000000001
43
0.0000000001
44
0.0000000001
40
1.4630742154849026
40
1.4630742154849026
40
1.4630742154849026
40
1.4630742154849026
40
1.5639272430141582
40
1.5639272430141582
40
1.5639272430141582
40
1.5639272430141582
10
-51.539307072828528
20
1.2519578408985299
30
0
10
-51.661604385682395
20
-0.69434223950278373
30
0
10
-51.727582317110965
20
-2.6517036372610239
30
0
10
-51.735428802993894
20
-4.6098843094634123
30
0
0
SPLINE
5
122
100
AcDbEntity
8
0
100
AcDbSpline
70
0
71
3
72
8
73
4
74
0
42
0.000000001
43
0.0000000001
44
0.0000000001
40
0
40
0
40
0
40
0
40
0.10324104593550294
40
0.10324104593550294
40
0.10324104593550294
40
0.10324104593550294
10
-51.73542880299393
20
-4.6098843094633795
30
0
10
-51.737679715287335
20
-5.1716253249372564
30
0
10
-51.780456940512025
20
-5.7365656488406414
30
0
10
-51.852043961221185
20
-6.2969361142693669
30
0
0
ELLIPSE
5
123
100
AcDbEntity
8
0
100
AcDbEllipse
10
2.6367796834847468e-15
20
-27.680691639362188
30
0
11
-60
21
3.4553562093922276e-16
31
0.0
40
0.70833333333333337
41
5.4055818374863636
42
5.7559486425348947
0
ENDSEC
0
SECTION
2
OBJECTS
0
DICTIONARY
5
C
100
AcDbDictionary
3
ACAD_GROUP
350
D
3
ACAD_MLINESTYLE
350
17
0
DICTIONARY
5
D
100
AcDbDictionary
0
DICTIONARY
5
1A
330
C
100
AcDbDictionary
0
DICTIONARY
5
17
100
AcDbDictionary
0
ENDSEC
0
EOF
